<?xml version="1.0" standalone="no"?>
<!DOCTYPE svg PUBLIC "-//W3C//DTD SVG 20010904//EN"
 "http://www.w3.org/TR/2001/REC-SVG-20010904/DTD/svg10.dtd">
<svg version="1.0" xmlns="http://www.w3.org/2000/svg"
 width="260.000000pt" height="260.000000pt" viewBox="0 0 260.000000 260.000000"
 preserveAspectRatio="xMidYMid meet">
<metadata>
Created by potrace 1.11, written by Peter Selinger 2001-2013
</metadata>
<g transform="translate(0.000000,260.000000) scale(0.100000,-0.100000)"
fill="#000000" stroke="none">
<path d="M320 2589 c-157 -31 -282 -164 -310 -329 -7 -44 -10 -360 -8 -1000 3
-849 5 -940 20 -984 39 -113 140 -214 251 -253 49 -17 114 -18 1038 -18 l985
0 76 37 c91 45 147 103 191 196 l32 67 0 996 0 995 -37 76 c-45 91 -103 147
-196 191 l-67 32 -965 2 c-531 0 -985 -3 -1010 -8z m670 -978 c0 -245 4 -452
11 -498 27 -197 135 -303 308 -303 148 0 253 98 290 268 7 35 11 206 11 502
l0 450 171 0 170 0 -4 -497 c-4 -553 -5 -558 -74 -703 -44 -91 -147 -199 -238
-247 -185 -97 -456 -103 -640 -12 -186 91 -306 267 -335 492 -5 39 -10 273
-10 520 l0 447 170 0 170 0 0 -419z"/>
</g>
</svg>
